<svg xmlns="http://www.w3.org/2000/svg" width="65" height="65" viewBox="0 0 10940 10800">
    <g fill="#ffffff">
        <g>
            <path
                d="M5230 10349 c-97 -15 -361 -48 -475 -60 -60 -6 -141 -17 -178 -25 -38 -8 -89 -14 -115 -14 -70 0 -178 -26 -246 -59 -83 -39 -172 -67 -291 -91 -55 -11 -118 -29 -140 -39 -87 -41 -190 -84 -235 -97 -26 -8 -58 -22 -71 -33 -37 -28 -98 -57 -164 -76 -78 -22 -130 -50 -171 -89 -34 -33 -50 -42 -154 -91 -64 -29 -190 -106 -270 -163 -30 -22 -70 -47 -87 -56 -59 -30 -248 -186 -446 -369 -121 -112 -388 -383 -405 -413 -4 -6 -37 -45 -74 -85 -102 -112 -164 -197 -204 -277 -21 -43 -49 -83 -70 -98 -19 -15 -53 -61 -78 -108 -25 -45 -58 -98 -74 -118 -16 -21 -39 -64 -51 -96 -12 -32 -40 -80 -61 -105 -23 -29 -50 -80 -69 -134 -18 -49 -47 -113 -65 -143 -51 -84 -55 -93 -87 -201 -16 -56 -44 -129 -61 -163 -18 -33 -46 -113 -64 -176 -17 -63 -46 -154 -63 -203 -44 -123 -60 -207 -66 -354 -4 -71 -15 -161 -25 -203 -10 -41 -24 -118 -30 -170 -6 -52 -16 -126 -21 -165 -41 -308 -39 -181 -37 -2715 l3 -2412 25 -20 c14 -11 46 -31 72 -44 l47 -24 2508 0 c2144 0 2530 2 2663 15 85 8 237 22 337 30 157 13 193 20 255 45 83 33 186 61 303 83 45 8 101 24 125 36 25 12 79 30 120 41 96 24 257 84 278 103 28 24 114 64 177 82 69 20 126 47 172 82 18 14 64 38 102 53 39 16 103 51 143 78 40 27 89 57 108 67 19 9 52 35 73 56 21 22 66 52 100 68 34 16 78 43 97 60 19 18 65 52 101 76 37 25 74 56 82 69 9 13 40 39 69 59 29 19 70 56 91 81 21 25 57 56 80 67 47 25 145 120 181 178 26 41 37 50 119 102 26 17 47 35 47 40 0 5 17 28 39 52 21 23 50 62 65 86 15 24 45 62 65 85 21 22 52 61 68 86 17 25 54 72 82 105 29 33 70 90 92 127 22 38 44 68 49 68 5 0 23 30 40 66 17 36 51 97 76 134 24 37 53 93 64 125 11 31 40 86 66 121 27 39 57 98 73 147 30 86 61 155 92 197 10 14 39 86 65 160 25 74 57 163 70 198 14 34 36 125 49 201 13 76 38 175 55 222 69 185 71 199 112 669 15 170 14 708 -1 860 -32 327 -41 393 -61 437 -17 39 -23 44 -42 39 -13 -4 -45 -12 -72 -19 -44 -11 -59 -23 -155 -128 -144 -158 -140 -153 -196 -208 -27 -27 -84 -84 -125 -127 -41 -43 -124 -125 -185 -182 -60 -57 -118 -117 -128 -133 -16 -24 -20 -62 -28 -226 -9 -203 -21 -327 -38 -391 -6 -21 -20 -109 -31 -197 -23 -176 -56 -315 -100 -415 -15 -36 -33 -85 -40 -110 -26 -103 -65 -211 -110 -305 -26 -55 -55 -120 -64 -145 -9 -25 -32 -70 -52 -100 -19 -30 -50 -87 -68 -125 -18 -39 -46 -86 -63 -105 -16 -19 -49 -73 -73 -119 -24 -45 -59 -99 -78 -120 -19 -20 -46 -52 -60 -71 -15 -19 -40 -51 -58 -71 -17 -20 -43 -59 -59 -87 -16 -29 -44 -62 -66 -76 -21 -14 -56 -49 -77 -79 -22 -29 -58 -65 -81 -81 -22 -16 -41 -32 -41 -36 0 -4 -16 -22 -36 -41 -52 -48 -85 -81 -117 -117 -16 -17 -55 -46 -87 -63 -33 -17 -66 -42 -75 -55 -8 -13 -35 -36 -58 -50 -23 -15 -71 -50 -107 -79 -91 -74 -176 -126 -316 -194 -67 -32 -124 -64 -128 -70 -14 -22 -81 -57 -161 -85 -44 -15 -96 -37 -115 -48 -19 -11 -98 -41 -175 -65 -77 -25 -156 -56 -175 -69 -46 -31 -159 -56 -415 -94 -115 -17 -266 -40 -335 -53 l-125 -22 -2010 -2 c-2011 -3 -2011 -3 -2033 17 -12 11 -31 51 -42 88 -21 68 -21 73 -17 2092 l3 2025 22 127 c12 70 31 153 42 185 39 111 49 149 70 271 19 116 55 246 79 288 16 30 82 195 93 234 5 19 25 65 43 101 18 36 39 86 45 110 16 60 42 107 83 152 19 22 53 75 77 118 23 44 50 88 60 97 10 9 34 49 54 87 35 68 108 165 225 295 31 36 66 79 77 95 21 34 311 325 324 325 5 0 40 28 78 63 96 86 270 220 312 242 19 10 54 35 76 56 23 20 75 53 117 72 41 19 97 53 125 75 32 25 81 50 130 66 44 15 94 38 113 52 19 14 79 39 134 55 138 42 155 48 196 76 54 35 172 73 269 85 46 5 116 19 155 30 122 35 215 51 515 90 41 5 197 9 345 9 216 -1 298 -5 405 -21 74 -11 169 -25 210 -31 41 -5 102 -19 135 -29 63 -21 219 -50 264 -50 51 0 146 -31 202 -65 31 -19 110 -53 175 -76 121 -42 433 -189 453 -212 6 -8 52 -33 103 -57 52 -24 114 -63 139 -86 26 -23 68 -53 95 -67 27 -14 58 -35 69 -47 11 -13 44 -38 74 -57 138 -89 468 -409 601 -583 19 -25 60 -72 90 -106 51 -55 58 -68 75 -143 l19 -84 -40 -36 c-22 -20 -56 -50 -75 -66 -19 -17 -50 -49 -69 -70 -20 -22 -49 -52 -65 -67 -17 -15 -106 -108 -200 -208 -93 -99 -342 -353 -551 -564 -210 -211 -400 -408 -423 -438 -22 -30 -52 -60 -65 -67 -13 -8 -75 -68 -137 -135 -62 -66 -129 -135 -149 -152 -19 -16 -72 -68 -118 -115 -161 -165 -459 -469 -563 -576 -58 -59 -115 -117 -127 -128 -12 -11 -104 -103 -205 -205 -176 -177 -187 -186 -251 -209 l-67 -23 -29 27 c-16 15 -45 62 -65 104 -20 42 -40 78 -44 81 -14 9 -60 95 -80 151 -12 30 -37 74 -55 96 -19 22 -55 82 -81 133 -25 52 -52 101 -60 110 -8 9 -28 43 -44 76 -16 32 -46 82 -65 109 -20 28 -47 75 -62 105 -14 30 -37 79 -51 107 -13 29 -40 72 -60 95 -20 24 -49 71 -65 106 -16 35 -41 80 -56 101 -15 21 -49 83 -76 138 -49 100 -49 100 -117 137 -56 30 -72 35 -88 26 -11 -5 -60 -24 -108 -41 -48 -17 -119 -46 -157 -64 -86 -41 -246 -105 -262 -105 -6 0 -39 -14 -73 -31 -74 -37 -73 -37 -148 73 -25 37 -50 68 -54 68 -17 0 -65 81 -91 154 -30 85 -49 112 -115 157 l-42 29 -478 0 c-524 0 -498 3 -543 -60 l-21 -30 72 -148 c66 -133 115 -217 183 -310 14 -18 34 -61 46 -95 11 -34 31 -80 45 -102 14 -22 47 -86 74 -143 28 -56 61 -117 75 -135 13 -17 41 -70 60 -116 20 -47 49 -99 65 -115 33 -36 65 -96 93 -175 10 -31 36 -85 57 -121 21 -36 57 -101 79 -146 40 -80 40 -80 92 -92 28 -7 61 -12 72 -12 33 0 210 70 245 96 34 26 134 67 193 79 19 4 73 25 119 47 119 56 129 60 151 48 37 -20 153 -177 206 -280 91 -174 134 -252 179 -320 23 -36 55 -94 72 -130 17 -36 50 -92 75 -125 48 -64 81 -124 91 -166 4 -14 20 -43 37 -64 17 -22 54 -85 81 -142 28 -57 55 -103 59 -103 5 0 36 -53 70 -118 99 -188 174 -321 193 -343 10 -11 42 -68 72 -127 58 -113 84 -138 168 -168 l38 -13 35 49 c19 27 50 58 69 70 18 11 51 45 74 75 23 30 46 55 51 55 8 0 166 155 250 247 19 21 43 45 52 53 61 56 848 853 870 881 14 19 199 207 410 419 210 212 458 464 549 560 91 96 340 349 552 561 212 213 398 405 412 428 15 23 32 41 37 41 10 0 163 154 293 295 44 47 93 99 110 113 35 32 75 74 158 165 34 38 89 96 122 131 103 108 174 190 194 222 10 17 39 47 63 67 25 21 58 57 73 82 16 25 46 59 68 76 l39 32 -7 76 c-5 57 -14 85 -34 116 -14 22 -44 78 -66 125 -22 47 -56 104 -77 128 -20 24 -44 65 -54 92 -10 28 -36 74 -58 102 -22 29 -59 82 -82 118 -23 36 -59 81 -79 100 -20 19 -52 65 -72 103 -19 37 -39 67 -44 67 -5 0 -18 14 -29 32 -67 111 -668 700 -795 780 -22 14 -49 35 -60 48 -11 12 -45 35 -77 51 -31 15 -81 50 -111 76 -30 27 -83 64 -117 83 -34 19 -74 44 -88 56 -15 11 -66 39 -113 62 -48 23 -100 52 -115 65 -38 32 -58 41 -135 68 -70 24 -155 64 -179 84 -15 13 -209 95 -224 95 -5 0 -31 12 -59 26 -28 14 -90 34 -137 45 -158 38 -265 71 -338 106 -60 28 -96 37 -190 48 -65 8 -162 21 -217 29 -55 8 -129 17 -165 21 -74 7 -255 30 -408 51 -110 15 -372 17 -462 3z"></path>
        </g>
    </g>
</svg>